<?xml version="1.0" encoding="UTF-8"?>
<svg id="uuid-7a550110-dbf4-4328-825b-b82444f4e85e" data-name="Layer 1" xmlns="http://www.w3.org/2000/svg" viewBox="0 0 64 64">
  <defs>
    <style>
      .uuid-a0234284-386d-4f03-8ecd-b5664f5dca01 {
        stroke-miterlimit: 10;
      }

      .uuid-a0234284-386d-4f03-8ecd-b5664f5dca01, .uuid-ab0bf954-57f5-4d15-a689-42c7f555acc9 {
        fill: none;
        stroke: #2B3A44;
        stroke-width: 3.15px;
      }

      .uuid-ab0bf954-57f5-4d15-a689-42c7f555acc9 {
        stroke-linejoin: round;
      }
    </style>
  </defs>
  <line class="uuid-ab0bf954-57f5-4d15-a689-42c7f555acc9" x1="35.93" y1="33.35" x2="49.82" y2="33.35"/>
  <line class="uuid-ab0bf954-57f5-4d15-a689-42c7f555acc9" x1="35.93" y1="38.89" x2="49.82" y2="38.89"/>
  <line class="uuid-ab0bf954-57f5-4d15-a689-42c7f555acc9" x1="24.84" y1="18.06" x2="37.81" y2="18.06"/>
  <line class="uuid-ab0bf954-57f5-4d15-a689-42c7f555acc9" x1="24.84" y1="23.59" x2="37.81" y2="23.59"/>
  <path class="uuid-ab0bf954-57f5-4d15-a689-42c7f555acc9" d="m40.9,23.39c.41,1.59,1.85,2.77,3.58,2.77,2.04,0,3.69-1.65,3.69-3.69,0-4-7.38-3.4-7.38-7.38,0-2.04,1.65-3.69,3.69-3.69,1.53,0,2.84.93,3.4,2.25.09.22.16.45.21.69"/>
  <line class="uuid-ab0bf954-57f5-4d15-a689-42c7f555acc9" x1="44.48" y1="8.39" x2="44.48" y2="10.4"/>
  <line class="uuid-ab0bf954-57f5-4d15-a689-42c7f555acc9" x1="44.48" y1="27.31" x2="44.48" y2="29.33"/>
  <line class="uuid-ab0bf954-57f5-4d15-a689-42c7f555acc9" x1="35.93" y1="45.01" x2="49.82" y2="45.01"/>
  <polyline class="uuid-ab0bf954-57f5-4d15-a689-42c7f555acc9" points="33.26 53.03 54.63 53.03 54.63 4.19 28.15 4.19 18.68 13.66"/>
  <polyline class="uuid-ab0bf954-57f5-4d15-a689-42c7f555acc9" points="28.15 4.19 28.15 13.66 18.68 13.66 18.68 27.78"/>
  <g>
    <path class="uuid-a0234284-386d-4f03-8ecd-b5664f5dca01" d="m22.92,25.99c-3.39,2.81-9.36,4.11-13.55,2.46v17.83c0,6.37,12.79,13.33,13.54,13.53.75-.2,13.54-7.65,13.54-12.82v-18.55c-4.34,1.65-9.8.35-13.53-2.46Z"/>
    <polyline class="uuid-ab0bf954-57f5-4d15-a689-42c7f555acc9" points="30.21 36.58 20.79 47.9 15.97 43.19"/>
  </g>
</svg>