<?xml version="1.0" encoding="UTF-8"?>
<svg id="uuid-f49d2454-e582-4df0-a816-ca8dbffad551" data-name="Layer 1" xmlns="http://www.w3.org/2000/svg" viewBox="0 0 64 64">
  <defs>
    <style>
      .uuid-75fda49d-caa7-44f4-976d-9f7d63043e5a {
        fill: none;
        stroke: #2B3A44;
        stroke-miterlimit: 10;
        stroke-width: 3.15px;
      }
    </style>
  </defs>
  <g>
    <path class="uuid-75fda49d-caa7-44f4-976d-9f7d63043e5a" d="m41.65,38h0c.47.81,1.39,1.14,2.07.75l1.23-.71c.68-.39.85-1.36.38-2.17l-.24-.41c-.36-.63-1.02-.99-1.64-.9l-2.46.36c-.62.09-1.28-.27-1.64-.9l-.24-.41c-.47-.81-.29-1.78.38-2.17l1.23-.71c.68-.39,1.6-.05,2.07.75h0"/>
    <line class="uuid-75fda49d-caa7-44f4-976d-9f7d63043e5a" x1="38.64" y1="28.49" x2="39.48" y2="29.95"/>
    <line class="uuid-75fda49d-caa7-44f4-976d-9f7d63043e5a" x1="44.97" y1="39.35" x2="45.81" y2="40.81"/>
    <ellipse class="uuid-75fda49d-caa7-44f4-976d-9f7d63043e5a" cx="25.08" cy="20.97" rx="9.55" ry="4.25"/>
    <line class="uuid-75fda49d-caa7-44f4-976d-9f7d63043e5a" x1="34.63" y1="27.62" x2="34.63" y2="20.92"/>
    <path class="uuid-75fda49d-caa7-44f4-976d-9f7d63043e5a" d="m15.52,27.33v6.37c0,2.34,4.28,4.25,9.55,4.25,1.87,0,3.61-.24,5.08-.65"/>
    <path class="uuid-75fda49d-caa7-44f4-976d-9f7d63043e5a" d="m15.52,20.97v6.37c0,2.34,4.28,4.25,9.55,4.25,1.96,0,3.79-.26,5.31-.71"/>
    <path class="uuid-75fda49d-caa7-44f4-976d-9f7d63043e5a" d="m15.52,33.7v6.37c0,2.34,4.28,4.25,9.55,4.25,2.8,0,5.32-.54,7.07-1.39"/>
    <path class="uuid-75fda49d-caa7-44f4-976d-9f7d63043e5a" d="m48.67,31.05c2.93,5.08,2.43,10.86-1.13,12.91-3.55,2.05-8.81-.4-11.74-5.48-2.93-5.08-2.43-10.86,1.13-12.91,3.55-2.05,8.81.4,11.74,5.48Z"/>
    <path class="uuid-75fda49d-caa7-44f4-976d-9f7d63043e5a" d="m36.93,25.57l-4.6,2.65c-3.55,2.05-4.06,7.83-1.13,12.91s8.19,7.53,11.74,5.48l4.6-2.65"/>
  </g>
  <polyline class="uuid-75fda49d-caa7-44f4-976d-9f7d63043e5a" points="52.63 5.67 52.63 13.9 44.93 13.09"/>
  <polyline class="uuid-75fda49d-caa7-44f4-976d-9f7d63043e5a" points="12.38 58.33 12.38 50.1 20.09 50.91"/>
  <path class="uuid-75fda49d-caa7-44f4-976d-9f7d63043e5a" d="m59.4,32c0,15.13-12.27,27.4-27.4,27.4-7.69,0-14.64-3.17-19.62-8.27"/>
  <path class="uuid-75fda49d-caa7-44f4-976d-9f7d63043e5a" d="m4.6,32c0-15.13,12.27-27.4,27.4-27.4,7.97,0,15.14,3.4,20.14,8.82"/>
</svg>